<svg xmlns="http://www.w3.org/2000/svg" viewBox="0 0 400 400" width="400" height="400">
    <defs>
        <linearGradient id="bg" x1="0%" y1="0%" x2="100%" y2="100%">
            <stop offset="0%" stop-color="#111424" />
            <stop offset="100%" stop-color="#1e2238" />
        </linearGradient>
        <linearGradient id="grad_accent" x1="0%" y1="0%" x2="100%" y2="100%">
            <stop offset="0%" stop-color="#f59e0b" />
            <stop offset="100%" stop-color="#3b82f6" />
        </linearGradient>
        <linearGradient id="sun_grad" x1="0%" y1="0%" x2="0%" y2="100%">
            <stop offset="0%" stop-color="#ffdd00" />
            <stop offset="60%" stop-color="#ff2a5f" />
            <stop offset="100%" stop-color="#7928ca" />
        </linearGradient>
        <linearGradient id="beam_grad" x1="0%" y1="0%" x2="100%" y2="0%">
            <stop offset="0%" stop-color="#fde047" stop-opacity="0.8"/>
            <stop offset="100%" stop-color="#38bdf8" stop-opacity="0"/>
        </linearGradient>
        <linearGradient id="beam_cyan" x1="0%" y1="0%" x2="100%" y2="0%">
            <stop offset="0%" stop-color="#00f0ff" stop-opacity="0.9"/>
            <stop offset="100%" stop-color="#00f0ff" stop-opacity="0"/>
        </linearGradient>
        <filter id="glow" x="-20%" y="-20%" width="140%" height="140%">
            <feGaussianBlur stdDeviation="6" result="blur" />
            <feComposite in="SourceGraphic" in2="blur" operator="over" />
        </filter>
    </defs>
    <!-- Fond -->
    <rect width="400" height="400" fill="url(#bg)" />
    <!-- Contenu Graphique -->
    <!-- Cartouche de jeu rétro 16-Bit -->
            <rect x="110" y="90" width="180" height="230" rx="14" fill="#2d3248" stroke="#4f567a" stroke-width="4"/>
            <rect x="130" y="80" width="140" height="20" rx="4" fill="#1e2235"/>
            <!-- Rainures latérales -->
            <line x1="120" y1="120" x2="120" y2="280" stroke="#1e2235" stroke-width="4"/>
            <line x1="280" y1="120" x2="280" y2="280" stroke="#1e2235" stroke-width="4"/>
            <!-- Étiquette brillante -->
            <rect x="135" y="125" width="130" height="140" rx="8" fill="#0f172a" stroke="#f59e0b" stroke-width="2.5"/>
            <path d="M135 125 L265 125 L265 175 L135 155 Z" fill="url(#grad_accent)"/>
            <text x="200" y="150" font-family="'Outfit', sans-serif" font-weight="900" font-size="20" fill="#fff" text-anchor="middle" letter-spacing="2">16-BIT</text>
            <text x="200" y="170" font-family="'Outfit', sans-serif" font-weight="700" font-size="11" fill="#fde047" text-anchor="middle" letter-spacing="1">ORIGINAL SOUNDTRACK</text>
            <!-- Illustration pixel sur étiquette -->
            <circle cx="200" cy="215" r="22" fill="#1e293b" stroke="#38bdf8" stroke-width="2"/>
            <path d="M192 215 L204 207 L204 223 Z" fill="#38bdf8"/>
            <!-- Connecteur doré en bas -->
            <rect x="145" y="310" width="110" height="15" fill="#d97706" rx="2"/>
    <!-- Cadre subtil intérieur -->
    <rect x="2" y="2" width="396" height="396" rx="16" fill="none" stroke="#f59e0b" stroke-width="1.5" opacity="0.35" />
</svg>